<mxfile host="app.diagrams.net" modified="2021-04-08T11:47:01.196Z" agent="5.0 (Macintosh; Intel Mac OS X 10_16_0) AppleWebKit/537.36 (KHTML, like Gecko) Chrome/79.0.3945.130 Safari/537.36" etag="xdeybbyFT3fAI5WxAKpm" version="14.5.8" type="github">
  <diagram id="gOJid5fdcjIkVIyNacTI" name="Page-1">
    <mxGraphModel dx="1965" dy="1285" grid="1" gridSize="10" guides="1" tooltips="1" connect="1" arrows="1" fold="1" page="1" pageScale="1" pageWidth="827" pageHeight="1169" math="0" shadow="0">
      <root>
        <mxCell id="0" />
        <mxCell id="1" parent="0" />
        <mxCell id="THQHD4b7rlvCDU22syKn-2" value="Contacts" style="shape=table;html=1;whiteSpace=wrap;startSize=30;container=1;collapsible=0;childLayout=tableLayout;fixedRows=1;rowLines=0;fontStyle=1;align=center;" vertex="1" parent="1">
          <mxGeometry x="80" y="40" width="180" height="190" as="geometry" />
        </mxCell>
        <mxCell id="THQHD4b7rlvCDU22syKn-3" value="" style="shape=partialRectangle;html=1;whiteSpace=wrap;collapsible=0;dropTarget=0;pointerEvents=0;fillColor=none;top=0;left=0;bottom=1;right=0;points=[[0,0.5],[1,0.5]];portConstraint=eastwest;" vertex="1" parent="THQHD4b7rlvCDU22syKn-2">
          <mxGeometry y="30" width="180" height="30" as="geometry" />
        </mxCell>
        <mxCell id="THQHD4b7rlvCDU22syKn-4" value="&lt;b&gt;PK&lt;/b&gt;" style="shape=partialRectangle;html=1;whiteSpace=wrap;connectable=0;fillColor=none;top=0;left=0;bottom=0;right=0;overflow=hidden;" vertex="1" parent="THQHD4b7rlvCDU22syKn-3">
          <mxGeometry width="40" height="30" as="geometry" />
        </mxCell>
        <mxCell id="THQHD4b7rlvCDU22syKn-5" value="&lt;b&gt;id (int)&lt;/b&gt;" style="shape=partialRectangle;html=1;whiteSpace=wrap;connectable=0;fillColor=none;top=0;left=0;bottom=0;right=0;align=left;spacingLeft=6;overflow=hidden;" vertex="1" parent="THQHD4b7rlvCDU22syKn-3">
          <mxGeometry x="40" width="140" height="30" as="geometry" />
        </mxCell>
        <mxCell id="THQHD4b7rlvCDU22syKn-6" value="" style="shape=partialRectangle;html=1;whiteSpace=wrap;collapsible=0;dropTarget=0;pointerEvents=0;fillColor=none;top=0;left=0;bottom=0;right=0;points=[[0,0.5],[1,0.5]];portConstraint=eastwest;" vertex="1" parent="THQHD4b7rlvCDU22syKn-2">
          <mxGeometry y="60" width="180" height="30" as="geometry" />
        </mxCell>
        <mxCell id="THQHD4b7rlvCDU22syKn-7" value="" style="shape=partialRectangle;html=1;whiteSpace=wrap;connectable=0;fillColor=none;top=0;left=0;bottom=0;right=0;overflow=hidden;" vertex="1" parent="THQHD4b7rlvCDU22syKn-6">
          <mxGeometry width="40" height="30" as="geometry" />
        </mxCell>
        <mxCell id="THQHD4b7rlvCDU22syKn-8" value="nama (varchar)" style="shape=partialRectangle;html=1;whiteSpace=wrap;connectable=0;fillColor=none;top=0;left=0;bottom=0;right=0;align=left;spacingLeft=6;overflow=hidden;" vertex="1" parent="THQHD4b7rlvCDU22syKn-6">
          <mxGeometry x="40" width="140" height="30" as="geometry" />
        </mxCell>
        <mxCell id="THQHD4b7rlvCDU22syKn-9" value="" style="shape=partialRectangle;html=1;whiteSpace=wrap;collapsible=0;dropTarget=0;pointerEvents=0;fillColor=none;top=0;left=0;bottom=0;right=0;points=[[0,0.5],[1,0.5]];portConstraint=eastwest;" vertex="1" parent="THQHD4b7rlvCDU22syKn-2">
          <mxGeometry y="90" width="180" height="30" as="geometry" />
        </mxCell>
        <mxCell id="THQHD4b7rlvCDU22syKn-10" value="" style="shape=partialRectangle;html=1;whiteSpace=wrap;connectable=0;fillColor=none;top=0;left=0;bottom=0;right=0;overflow=hidden;" vertex="1" parent="THQHD4b7rlvCDU22syKn-9">
          <mxGeometry width="40" height="30" as="geometry" />
        </mxCell>
        <mxCell id="THQHD4b7rlvCDU22syKn-11" value="perusahaan (varchar)" style="shape=partialRectangle;html=1;whiteSpace=wrap;connectable=0;fillColor=none;top=0;left=0;bottom=0;right=0;align=left;spacingLeft=6;overflow=hidden;" vertex="1" parent="THQHD4b7rlvCDU22syKn-9">
          <mxGeometry x="40" width="140" height="30" as="geometry" />
        </mxCell>
        <mxCell id="THQHD4b7rlvCDU22syKn-13" value="no telp (varchar)" style="shape=partialRectangle;html=1;whiteSpace=wrap;connectable=0;fillColor=none;top=0;left=0;bottom=0;right=0;align=left;spacingLeft=6;overflow=hidden;" vertex="1" parent="1">
          <mxGeometry x="120" y="160" width="140" height="30" as="geometry" />
        </mxCell>
        <mxCell id="THQHD4b7rlvCDU22syKn-14" value="email (varchar)" style="shape=partialRectangle;html=1;whiteSpace=wrap;connectable=0;fillColor=none;top=0;left=0;bottom=0;right=0;align=left;spacingLeft=6;overflow=hidden;" vertex="1" parent="1">
          <mxGeometry x="120" y="190" width="140" height="30" as="geometry" />
        </mxCell>
        <mxCell id="THQHD4b7rlvCDU22syKn-15" value="ContactGroups" style="shape=table;html=1;whiteSpace=wrap;startSize=30;container=1;collapsible=0;childLayout=tableLayout;fixedRows=1;rowLines=0;fontStyle=1;align=center;" vertex="1" parent="1">
          <mxGeometry x="390" y="50" width="180" height="120" as="geometry" />
        </mxCell>
        <mxCell id="THQHD4b7rlvCDU22syKn-16" value="" style="shape=partialRectangle;html=1;whiteSpace=wrap;collapsible=0;dropTarget=0;pointerEvents=0;fillColor=none;top=0;left=0;bottom=1;right=0;points=[[0,0.5],[1,0.5]];portConstraint=eastwest;" vertex="1" parent="THQHD4b7rlvCDU22syKn-15">
          <mxGeometry y="30" width="180" height="30" as="geometry" />
        </mxCell>
        <mxCell id="THQHD4b7rlvCDU22syKn-17" value="&lt;b&gt;PK&lt;/b&gt;" style="shape=partialRectangle;html=1;whiteSpace=wrap;connectable=0;fillColor=none;top=0;left=0;bottom=0;right=0;overflow=hidden;" vertex="1" parent="THQHD4b7rlvCDU22syKn-16">
          <mxGeometry width="40" height="30" as="geometry" />
        </mxCell>
        <mxCell id="THQHD4b7rlvCDU22syKn-18" value="&lt;b&gt;id (int)&lt;/b&gt;" style="shape=partialRectangle;html=1;whiteSpace=wrap;connectable=0;fillColor=none;top=0;left=0;bottom=0;right=0;align=left;spacingLeft=6;overflow=hidden;" vertex="1" parent="THQHD4b7rlvCDU22syKn-16">
          <mxGeometry x="40" width="140" height="30" as="geometry" />
        </mxCell>
        <mxCell id="THQHD4b7rlvCDU22syKn-19" value="" style="shape=partialRectangle;html=1;whiteSpace=wrap;collapsible=0;dropTarget=0;pointerEvents=0;fillColor=none;top=0;left=0;bottom=0;right=0;points=[[0,0.5],[1,0.5]];portConstraint=eastwest;" vertex="1" parent="THQHD4b7rlvCDU22syKn-15">
          <mxGeometry y="60" width="180" height="30" as="geometry" />
        </mxCell>
        <mxCell id="THQHD4b7rlvCDU22syKn-20" value="" style="shape=partialRectangle;html=1;whiteSpace=wrap;connectable=0;fillColor=none;top=0;left=0;bottom=0;right=0;overflow=hidden;" vertex="1" parent="THQHD4b7rlvCDU22syKn-19">
          <mxGeometry width="40" height="30" as="geometry" />
        </mxCell>
        <mxCell id="THQHD4b7rlvCDU22syKn-21" value="" style="shape=partialRectangle;html=1;whiteSpace=wrap;connectable=0;fillColor=none;top=0;left=0;bottom=0;right=0;align=left;spacingLeft=6;overflow=hidden;" vertex="1" parent="THQHD4b7rlvCDU22syKn-19">
          <mxGeometry x="40" width="140" height="30" as="geometry" />
        </mxCell>
        <mxCell id="THQHD4b7rlvCDU22syKn-22" value="" style="shape=partialRectangle;html=1;whiteSpace=wrap;collapsible=0;dropTarget=0;pointerEvents=0;fillColor=none;top=0;left=0;bottom=0;right=0;points=[[0,0.5],[1,0.5]];portConstraint=eastwest;" vertex="1" parent="THQHD4b7rlvCDU22syKn-15">
          <mxGeometry y="90" width="180" height="30" as="geometry" />
        </mxCell>
        <mxCell id="THQHD4b7rlvCDU22syKn-23" value="" style="shape=partialRectangle;html=1;whiteSpace=wrap;connectable=0;fillColor=none;top=0;left=0;bottom=0;right=0;overflow=hidden;" vertex="1" parent="THQHD4b7rlvCDU22syKn-22">
          <mxGeometry width="40" height="30" as="geometry" />
        </mxCell>
        <mxCell id="THQHD4b7rlvCDU22syKn-24" value="" style="shape=partialRectangle;html=1;whiteSpace=wrap;connectable=0;fillColor=none;top=0;left=0;bottom=0;right=0;align=left;spacingLeft=6;overflow=hidden;" vertex="1" parent="THQHD4b7rlvCDU22syKn-22">
          <mxGeometry x="40" width="140" height="30" as="geometry" />
        </mxCell>
        <mxCell id="THQHD4b7rlvCDU22syKn-26" value="contactId (int)" style="shape=partialRectangle;html=1;whiteSpace=wrap;connectable=0;fillColor=none;top=0;left=0;bottom=0;right=0;align=left;spacingLeft=6;overflow=hidden;" vertex="1" parent="1">
          <mxGeometry x="430" y="110" width="140" height="30" as="geometry" />
        </mxCell>
        <mxCell id="THQHD4b7rlvCDU22syKn-27" value="FK" style="shape=partialRectangle;html=1;whiteSpace=wrap;connectable=0;fillColor=none;top=0;left=0;bottom=0;right=0;overflow=hidden;" vertex="1" parent="1">
          <mxGeometry x="392" y="110" width="40" height="30" as="geometry" />
        </mxCell>
        <mxCell id="THQHD4b7rlvCDU22syKn-28" value="&lt;meta charset=&quot;utf-8&quot;&gt;&lt;span style=&quot;color: rgb(0, 0, 0); font-family: helvetica; font-size: 12px; font-style: normal; font-weight: 400; letter-spacing: normal; text-align: center; text-indent: 0px; text-transform: none; word-spacing: 0px; background-color: rgb(248, 249, 250); display: inline; float: none;&quot;&gt;FK&lt;/span&gt;" style="text;whiteSpace=wrap;html=1;" vertex="1" parent="1">
          <mxGeometry x="400" y="140" width="40" height="30" as="geometry" />
        </mxCell>
        <mxCell id="THQHD4b7rlvCDU22syKn-29" value="groupId (int)" style="shape=partialRectangle;html=1;whiteSpace=wrap;connectable=0;fillColor=none;top=0;left=0;bottom=0;right=0;align=left;spacingLeft=6;overflow=hidden;" vertex="1" parent="1">
          <mxGeometry x="432" y="140" width="140" height="30" as="geometry" />
        </mxCell>
        <mxCell id="THQHD4b7rlvCDU22syKn-30" value="Contacts" style="shape=table;html=1;whiteSpace=wrap;startSize=30;container=1;collapsible=0;childLayout=tableLayout;fixedRows=1;rowLines=0;fontStyle=1;align=center;" vertex="1" parent="1">
          <mxGeometry x="680" y="50" width="180" height="120" as="geometry" />
        </mxCell>
        <mxCell id="THQHD4b7rlvCDU22syKn-31" value="" style="shape=partialRectangle;html=1;whiteSpace=wrap;collapsible=0;dropTarget=0;pointerEvents=0;fillColor=none;top=0;left=0;bottom=1;right=0;points=[[0,0.5],[1,0.5]];portConstraint=eastwest;" vertex="1" parent="THQHD4b7rlvCDU22syKn-30">
          <mxGeometry y="30" width="180" height="30" as="geometry" />
        </mxCell>
        <mxCell id="THQHD4b7rlvCDU22syKn-32" value="&lt;b&gt;PK&lt;/b&gt;" style="shape=partialRectangle;html=1;whiteSpace=wrap;connectable=0;fillColor=none;top=0;left=0;bottom=0;right=0;overflow=hidden;" vertex="1" parent="THQHD4b7rlvCDU22syKn-31">
          <mxGeometry width="40" height="30" as="geometry" />
        </mxCell>
        <mxCell id="THQHD4b7rlvCDU22syKn-33" value="&lt;b&gt;id (int)&lt;/b&gt;" style="shape=partialRectangle;html=1;whiteSpace=wrap;connectable=0;fillColor=none;top=0;left=0;bottom=0;right=0;align=left;spacingLeft=6;overflow=hidden;" vertex="1" parent="THQHD4b7rlvCDU22syKn-31">
          <mxGeometry x="40" width="140" height="30" as="geometry" />
        </mxCell>
        <mxCell id="THQHD4b7rlvCDU22syKn-34" value="" style="shape=partialRectangle;html=1;whiteSpace=wrap;collapsible=0;dropTarget=0;pointerEvents=0;fillColor=none;top=0;left=0;bottom=0;right=0;points=[[0,0.5],[1,0.5]];portConstraint=eastwest;" vertex="1" parent="THQHD4b7rlvCDU22syKn-30">
          <mxGeometry y="60" width="180" height="30" as="geometry" />
        </mxCell>
        <mxCell id="THQHD4b7rlvCDU22syKn-35" value="" style="shape=partialRectangle;html=1;whiteSpace=wrap;connectable=0;fillColor=none;top=0;left=0;bottom=0;right=0;overflow=hidden;" vertex="1" parent="THQHD4b7rlvCDU22syKn-34">
          <mxGeometry width="40" height="30" as="geometry" />
        </mxCell>
        <mxCell id="THQHD4b7rlvCDU22syKn-36" value="nama (varchar)" style="shape=partialRectangle;html=1;whiteSpace=wrap;connectable=0;fillColor=none;top=0;left=0;bottom=0;right=0;align=left;spacingLeft=6;overflow=hidden;" vertex="1" parent="THQHD4b7rlvCDU22syKn-34">
          <mxGeometry x="40" width="140" height="30" as="geometry" />
        </mxCell>
        <mxCell id="THQHD4b7rlvCDU22syKn-37" value="" style="shape=partialRectangle;html=1;whiteSpace=wrap;collapsible=0;dropTarget=0;pointerEvents=0;fillColor=none;top=0;left=0;bottom=0;right=0;points=[[0,0.5],[1,0.5]];portConstraint=eastwest;" vertex="1" parent="THQHD4b7rlvCDU22syKn-30">
          <mxGeometry y="90" width="180" height="30" as="geometry" />
        </mxCell>
        <mxCell id="THQHD4b7rlvCDU22syKn-38" value="" style="shape=partialRectangle;html=1;whiteSpace=wrap;connectable=0;fillColor=none;top=0;left=0;bottom=0;right=0;overflow=hidden;" vertex="1" parent="THQHD4b7rlvCDU22syKn-37">
          <mxGeometry width="40" height="30" as="geometry" />
        </mxCell>
        <mxCell id="THQHD4b7rlvCDU22syKn-39" value="" style="shape=partialRectangle;html=1;whiteSpace=wrap;connectable=0;fillColor=none;top=0;left=0;bottom=0;right=0;align=left;spacingLeft=6;overflow=hidden;" vertex="1" parent="THQHD4b7rlvCDU22syKn-37">
          <mxGeometry x="40" width="140" height="30" as="geometry" />
        </mxCell>
        <mxCell id="THQHD4b7rlvCDU22syKn-42" value="" style="edgeStyle=entityRelationEdgeStyle;fontSize=12;html=1;endArrow=ERoneToMany;exitX=1;exitY=0.5;exitDx=0;exitDy=0;" edge="1" parent="1" source="THQHD4b7rlvCDU22syKn-3">
          <mxGeometry width="100" height="100" relative="1" as="geometry">
            <mxPoint x="292" y="220" as="sourcePoint" />
            <mxPoint x="392" y="120" as="targetPoint" />
          </mxGeometry>
        </mxCell>
        <mxCell id="THQHD4b7rlvCDU22syKn-43" value="" style="edgeStyle=orthogonalEdgeStyle;fontSize=12;html=1;endArrow=ERoneToMany;exitX=0;exitY=0.5;exitDx=0;exitDy=0;" edge="1" parent="1" source="THQHD4b7rlvCDU22syKn-31">
          <mxGeometry width="100" height="100" relative="1" as="geometry">
            <mxPoint x="470" y="250" as="sourcePoint" />
            <mxPoint x="570" y="150" as="targetPoint" />
            <Array as="points">
              <mxPoint x="620" y="95" />
              <mxPoint x="620" y="150" />
            </Array>
          </mxGeometry>
        </mxCell>
        <mxCell id="THQHD4b7rlvCDU22syKn-44" value="Employees" style="shape=table;html=1;whiteSpace=wrap;startSize=30;container=1;collapsible=0;childLayout=tableLayout;fixedRows=1;rowLines=0;fontStyle=1;align=center;" vertex="1" parent="1">
          <mxGeometry x="790" y="220" width="230" height="260" as="geometry" />
        </mxCell>
        <mxCell id="THQHD4b7rlvCDU22syKn-45" value="" style="shape=partialRectangle;html=1;whiteSpace=wrap;collapsible=0;dropTarget=0;pointerEvents=0;fillColor=none;top=0;left=0;bottom=1;right=0;points=[[0,0.5],[1,0.5]];portConstraint=eastwest;" vertex="1" parent="THQHD4b7rlvCDU22syKn-44">
          <mxGeometry y="30" width="230" height="30" as="geometry" />
        </mxCell>
        <mxCell id="THQHD4b7rlvCDU22syKn-46" value="&lt;b&gt;PK&lt;/b&gt;" style="shape=partialRectangle;html=1;whiteSpace=wrap;connectable=0;fillColor=none;top=0;left=0;bottom=0;right=0;overflow=hidden;" vertex="1" parent="THQHD4b7rlvCDU22syKn-45">
          <mxGeometry width="51" height="30" as="geometry" />
        </mxCell>
        <mxCell id="THQHD4b7rlvCDU22syKn-47" value="&lt;b&gt;id (int)&lt;/b&gt;" style="shape=partialRectangle;html=1;whiteSpace=wrap;connectable=0;fillColor=none;top=0;left=0;bottom=0;right=0;align=left;spacingLeft=6;overflow=hidden;" vertex="1" parent="THQHD4b7rlvCDU22syKn-45">
          <mxGeometry x="51" width="179" height="30" as="geometry" />
        </mxCell>
        <mxCell id="THQHD4b7rlvCDU22syKn-48" value="" style="shape=partialRectangle;html=1;whiteSpace=wrap;collapsible=0;dropTarget=0;pointerEvents=0;fillColor=none;top=0;left=0;bottom=0;right=0;points=[[0,0.5],[1,0.5]];portConstraint=eastwest;" vertex="1" parent="THQHD4b7rlvCDU22syKn-44">
          <mxGeometry y="60" width="230" height="30" as="geometry" />
        </mxCell>
        <mxCell id="THQHD4b7rlvCDU22syKn-49" value="" style="shape=partialRectangle;html=1;whiteSpace=wrap;connectable=0;fillColor=none;top=0;left=0;bottom=0;right=0;overflow=hidden;" vertex="1" parent="THQHD4b7rlvCDU22syKn-48">
          <mxGeometry width="51" height="30" as="geometry" />
        </mxCell>
        <mxCell id="THQHD4b7rlvCDU22syKn-50" value="nik (varchar)" style="shape=partialRectangle;html=1;whiteSpace=wrap;connectable=0;fillColor=none;top=0;left=0;bottom=0;right=0;align=left;spacingLeft=6;overflow=hidden;" vertex="1" parent="THQHD4b7rlvCDU22syKn-48">
          <mxGeometry x="51" width="179" height="30" as="geometry" />
        </mxCell>
        <mxCell id="THQHD4b7rlvCDU22syKn-51" value="" style="shape=partialRectangle;html=1;whiteSpace=wrap;collapsible=0;dropTarget=0;pointerEvents=0;fillColor=none;top=0;left=0;bottom=0;right=0;points=[[0,0.5],[1,0.5]];portConstraint=eastwest;" vertex="1" parent="THQHD4b7rlvCDU22syKn-44">
          <mxGeometry y="90" width="230" height="30" as="geometry" />
        </mxCell>
        <mxCell id="THQHD4b7rlvCDU22syKn-52" value="" style="shape=partialRectangle;html=1;whiteSpace=wrap;connectable=0;fillColor=none;top=0;left=0;bottom=0;right=0;overflow=hidden;" vertex="1" parent="THQHD4b7rlvCDU22syKn-51">
          <mxGeometry width="51" height="30" as="geometry" />
        </mxCell>
        <mxCell id="THQHD4b7rlvCDU22syKn-53" value="nama depan (varchar)" style="shape=partialRectangle;html=1;whiteSpace=wrap;connectable=0;fillColor=none;top=0;left=0;bottom=0;right=0;align=left;spacingLeft=6;overflow=hidden;" vertex="1" parent="THQHD4b7rlvCDU22syKn-51">
          <mxGeometry x="51" width="179" height="30" as="geometry" />
        </mxCell>
        <mxCell id="THQHD4b7rlvCDU22syKn-54" value="nama belakang (varchar)" style="shape=partialRectangle;html=1;whiteSpace=wrap;connectable=0;fillColor=none;top=0;left=0;bottom=0;right=0;align=left;spacingLeft=6;overflow=hidden;" vertex="1" parent="1">
          <mxGeometry x="840" y="340" width="170" height="30" as="geometry" />
        </mxCell>
        <mxCell id="THQHD4b7rlvCDU22syKn-55" value="jenis kelamin (varchar)" style="shape=partialRectangle;html=1;whiteSpace=wrap;connectable=0;fillColor=none;top=0;left=0;bottom=0;right=0;align=left;spacingLeft=6;overflow=hidden;" vertex="1" parent="1">
          <mxGeometry x="840" y="370" width="140" height="30" as="geometry" />
        </mxCell>
        <mxCell id="THQHD4b7rlvCDU22syKn-56" value="email (varchar)" style="shape=partialRectangle;html=1;whiteSpace=wrap;connectable=0;fillColor=none;top=0;left=0;bottom=0;right=0;align=left;spacingLeft=6;overflow=hidden;" vertex="1" parent="1">
          <mxGeometry x="840" y="400" width="140" height="30" as="geometry" />
        </mxCell>
        <mxCell id="THQHD4b7rlvCDU22syKn-57" value="phone number (varchar)" style="shape=partialRectangle;html=1;whiteSpace=wrap;connectable=0;fillColor=none;top=0;left=0;bottom=0;right=0;align=left;spacingLeft=6;overflow=hidden;" vertex="1" parent="1">
          <mxGeometry x="840" y="430" width="140" height="30" as="geometry" />
        </mxCell>
        <mxCell id="THQHD4b7rlvCDU22syKn-58" value="Departments" style="shape=table;html=1;whiteSpace=wrap;startSize=30;container=1;collapsible=0;childLayout=tableLayout;fixedRows=1;rowLines=0;fontStyle=1;align=center;" vertex="1" parent="1">
          <mxGeometry x="1152" y="260" width="180" height="120" as="geometry" />
        </mxCell>
        <mxCell id="THQHD4b7rlvCDU22syKn-59" value="" style="shape=partialRectangle;html=1;whiteSpace=wrap;collapsible=0;dropTarget=0;pointerEvents=0;fillColor=none;top=0;left=0;bottom=1;right=0;points=[[0,0.5],[1,0.5]];portConstraint=eastwest;" vertex="1" parent="THQHD4b7rlvCDU22syKn-58">
          <mxGeometry y="30" width="180" height="30" as="geometry" />
        </mxCell>
        <mxCell id="THQHD4b7rlvCDU22syKn-60" value="&lt;b&gt;PK&lt;/b&gt;" style="shape=partialRectangle;html=1;whiteSpace=wrap;connectable=0;fillColor=none;top=0;left=0;bottom=0;right=0;overflow=hidden;" vertex="1" parent="THQHD4b7rlvCDU22syKn-59">
          <mxGeometry width="40" height="30" as="geometry" />
        </mxCell>
        <mxCell id="THQHD4b7rlvCDU22syKn-61" value="&lt;b&gt;id (int)&lt;/b&gt;" style="shape=partialRectangle;html=1;whiteSpace=wrap;connectable=0;fillColor=none;top=0;left=0;bottom=0;right=0;align=left;spacingLeft=6;overflow=hidden;" vertex="1" parent="THQHD4b7rlvCDU22syKn-59">
          <mxGeometry x="40" width="140" height="30" as="geometry" />
        </mxCell>
        <mxCell id="THQHD4b7rlvCDU22syKn-62" value="" style="shape=partialRectangle;html=1;whiteSpace=wrap;collapsible=0;dropTarget=0;pointerEvents=0;fillColor=none;top=0;left=0;bottom=0;right=0;points=[[0,0.5],[1,0.5]];portConstraint=eastwest;" vertex="1" parent="THQHD4b7rlvCDU22syKn-58">
          <mxGeometry y="60" width="180" height="30" as="geometry" />
        </mxCell>
        <mxCell id="THQHD4b7rlvCDU22syKn-63" value="" style="shape=partialRectangle;html=1;whiteSpace=wrap;connectable=0;fillColor=none;top=0;left=0;bottom=0;right=0;overflow=hidden;" vertex="1" parent="THQHD4b7rlvCDU22syKn-62">
          <mxGeometry width="40" height="30" as="geometry" />
        </mxCell>
        <mxCell id="THQHD4b7rlvCDU22syKn-64" value="nama (varchar)" style="shape=partialRectangle;html=1;whiteSpace=wrap;connectable=0;fillColor=none;top=0;left=0;bottom=0;right=0;align=left;spacingLeft=6;overflow=hidden;" vertex="1" parent="THQHD4b7rlvCDU22syKn-62">
          <mxGeometry x="40" width="140" height="30" as="geometry" />
        </mxCell>
        <mxCell id="THQHD4b7rlvCDU22syKn-65" value="" style="shape=partialRectangle;html=1;whiteSpace=wrap;collapsible=0;dropTarget=0;pointerEvents=0;fillColor=none;top=0;left=0;bottom=0;right=0;points=[[0,0.5],[1,0.5]];portConstraint=eastwest;" vertex="1" parent="THQHD4b7rlvCDU22syKn-58">
          <mxGeometry y="90" width="180" height="30" as="geometry" />
        </mxCell>
        <mxCell id="THQHD4b7rlvCDU22syKn-66" value="" style="shape=partialRectangle;html=1;whiteSpace=wrap;connectable=0;fillColor=none;top=0;left=0;bottom=0;right=0;overflow=hidden;" vertex="1" parent="THQHD4b7rlvCDU22syKn-65">
          <mxGeometry width="40" height="30" as="geometry" />
        </mxCell>
        <mxCell id="THQHD4b7rlvCDU22syKn-67" value="&lt;span&gt;employeeId (int)&lt;/span&gt;" style="shape=partialRectangle;html=1;whiteSpace=wrap;connectable=0;fillColor=none;top=0;left=0;bottom=0;right=0;align=left;spacingLeft=6;overflow=hidden;" vertex="1" parent="THQHD4b7rlvCDU22syKn-65">
          <mxGeometry x="40" width="140" height="30" as="geometry" />
        </mxCell>
        <mxCell id="THQHD4b7rlvCDU22syKn-68" value="Managers" style="shape=table;html=1;whiteSpace=wrap;startSize=0;container=1;collapsible=0;childLayout=tableLayout;fixedRows=1;rowLines=0;fontStyle=1;align=center;" vertex="1" parent="1">
          <mxGeometry x="1430" y="260" width="180" height="120" as="geometry" />
        </mxCell>
        <mxCell id="THQHD4b7rlvCDU22syKn-69" value="" style="shape=partialRectangle;html=1;whiteSpace=wrap;collapsible=0;dropTarget=0;pointerEvents=0;fillColor=none;top=0;left=0;bottom=1;right=0;points=[[0,0.5],[1,0.5]];portConstraint=eastwest;" vertex="1" parent="THQHD4b7rlvCDU22syKn-68">
          <mxGeometry width="180" height="30" as="geometry" />
        </mxCell>
        <mxCell id="THQHD4b7rlvCDU22syKn-70" value="&lt;b&gt;PK&lt;/b&gt;" style="shape=partialRectangle;html=1;whiteSpace=wrap;connectable=0;fillColor=none;top=0;left=0;bottom=0;right=0;overflow=hidden;" vertex="1" parent="THQHD4b7rlvCDU22syKn-69">
          <mxGeometry width="40" height="30" as="geometry" />
        </mxCell>
        <mxCell id="THQHD4b7rlvCDU22syKn-71" value="&lt;b&gt;id (int)&lt;/b&gt;" style="shape=partialRectangle;html=1;whiteSpace=wrap;connectable=0;fillColor=none;top=0;left=0;bottom=0;right=0;align=left;spacingLeft=6;overflow=hidden;" vertex="1" parent="THQHD4b7rlvCDU22syKn-69">
          <mxGeometry x="40" width="140" height="30" as="geometry" />
        </mxCell>
        <mxCell id="THQHD4b7rlvCDU22syKn-72" value="" style="shape=partialRectangle;html=1;whiteSpace=wrap;collapsible=0;dropTarget=0;pointerEvents=0;fillColor=none;top=0;left=0;bottom=0;right=0;points=[[0,0.5],[1,0.5]];portConstraint=eastwest;" vertex="1" parent="THQHD4b7rlvCDU22syKn-68">
          <mxGeometry y="30" width="180" height="30" as="geometry" />
        </mxCell>
        <mxCell id="THQHD4b7rlvCDU22syKn-73" value="" style="shape=partialRectangle;html=1;whiteSpace=wrap;connectable=0;fillColor=none;top=0;left=0;bottom=0;right=0;overflow=hidden;" vertex="1" parent="THQHD4b7rlvCDU22syKn-72">
          <mxGeometry width="40" height="30" as="geometry" />
        </mxCell>
        <mxCell id="THQHD4b7rlvCDU22syKn-74" value="nama (varchar)" style="shape=partialRectangle;html=1;whiteSpace=wrap;connectable=0;fillColor=none;top=0;left=0;bottom=0;right=0;align=left;spacingLeft=6;overflow=hidden;" vertex="1" parent="THQHD4b7rlvCDU22syKn-72">
          <mxGeometry x="40" width="140" height="30" as="geometry" />
        </mxCell>
        <mxCell id="THQHD4b7rlvCDU22syKn-75" value="" style="shape=partialRectangle;html=1;whiteSpace=wrap;collapsible=0;dropTarget=0;pointerEvents=0;fillColor=none;top=0;left=0;bottom=0;right=0;points=[[0,0.5],[1,0.5]];portConstraint=eastwest;" vertex="1" parent="THQHD4b7rlvCDU22syKn-68">
          <mxGeometry y="60" width="180" height="30" as="geometry" />
        </mxCell>
        <mxCell id="THQHD4b7rlvCDU22syKn-76" value="&lt;b&gt;FK&lt;/b&gt;" style="shape=partialRectangle;html=1;whiteSpace=wrap;connectable=0;fillColor=none;top=0;left=0;bottom=0;right=0;overflow=hidden;" vertex="1" parent="THQHD4b7rlvCDU22syKn-75">
          <mxGeometry width="40" height="30" as="geometry" />
        </mxCell>
        <mxCell id="THQHD4b7rlvCDU22syKn-77" value="departmentId (int)" style="shape=partialRectangle;html=1;whiteSpace=wrap;connectable=0;fillColor=none;top=0;left=0;bottom=0;right=0;align=left;spacingLeft=6;overflow=hidden;" vertex="1" parent="THQHD4b7rlvCDU22syKn-75">
          <mxGeometry x="40" width="140" height="30" as="geometry" />
        </mxCell>
        <mxCell id="THQHD4b7rlvCDU22syKn-78" value="" style="edgeStyle=entityRelationEdgeStyle;fontSize=12;html=1;endArrow=ERmandOne;startArrow=ERmandOne;entryX=0;entryY=0.5;entryDx=0;entryDy=0;" edge="1" parent="1" target="THQHD4b7rlvCDU22syKn-75">
          <mxGeometry width="100" height="100" relative="1" as="geometry">
            <mxPoint x="1332" y="300" as="sourcePoint" />
            <mxPoint x="1432" y="200" as="targetPoint" />
          </mxGeometry>
        </mxCell>
        <mxCell id="THQHD4b7rlvCDU22syKn-80" value="" style="edgeStyle=entityRelationEdgeStyle;fontSize=12;html=1;endArrow=ERoneToMany;exitX=1.009;exitY=0.3;exitDx=0;exitDy=0;exitPerimeter=0;" edge="1" parent="1" source="THQHD4b7rlvCDU22syKn-45">
          <mxGeometry width="100" height="100" relative="1" as="geometry">
            <mxPoint x="1050" y="465" as="sourcePoint" />
            <mxPoint x="1150" y="365" as="targetPoint" />
          </mxGeometry>
        </mxCell>
        <mxCell id="THQHD4b7rlvCDU22syKn-81" value="&lt;b&gt;FK&lt;/b&gt;" style="shape=partialRectangle;html=1;whiteSpace=wrap;connectable=0;fillColor=none;top=0;left=0;bottom=0;right=0;overflow=hidden;" vertex="1" parent="1">
          <mxGeometry x="1152" y="350" width="40" height="30" as="geometry" />
        </mxCell>
        <mxCell id="THQHD4b7rlvCDU22syKn-82" value="Projects" style="shape=table;html=1;whiteSpace=wrap;startSize=30;container=1;collapsible=0;childLayout=tableLayout;fixedRows=1;rowLines=0;fontStyle=1;align=center;" vertex="1" parent="1">
          <mxGeometry x="260" y="280" width="180" height="90" as="geometry" />
        </mxCell>
        <mxCell id="THQHD4b7rlvCDU22syKn-83" value="" style="shape=partialRectangle;html=1;whiteSpace=wrap;collapsible=0;dropTarget=0;pointerEvents=0;fillColor=none;top=0;left=0;bottom=1;right=0;points=[[0,0.5],[1,0.5]];portConstraint=eastwest;" vertex="1" parent="THQHD4b7rlvCDU22syKn-82">
          <mxGeometry y="30" width="180" height="30" as="geometry" />
        </mxCell>
        <mxCell id="THQHD4b7rlvCDU22syKn-84" value="&lt;b&gt;PK&lt;/b&gt;" style="shape=partialRectangle;html=1;whiteSpace=wrap;connectable=0;fillColor=none;top=0;left=0;bottom=0;right=0;overflow=hidden;" vertex="1" parent="THQHD4b7rlvCDU22syKn-83">
          <mxGeometry width="40" height="30" as="geometry" />
        </mxCell>
        <mxCell id="THQHD4b7rlvCDU22syKn-85" value="&lt;b&gt;id (int)&lt;/b&gt;" style="shape=partialRectangle;html=1;whiteSpace=wrap;connectable=0;fillColor=none;top=0;left=0;bottom=0;right=0;align=left;spacingLeft=6;overflow=hidden;" vertex="1" parent="THQHD4b7rlvCDU22syKn-83">
          <mxGeometry x="40" width="140" height="30" as="geometry" />
        </mxCell>
        <mxCell id="THQHD4b7rlvCDU22syKn-86" value="" style="shape=partialRectangle;html=1;whiteSpace=wrap;collapsible=0;dropTarget=0;pointerEvents=0;fillColor=none;top=0;left=0;bottom=0;right=0;points=[[0,0.5],[1,0.5]];portConstraint=eastwest;" vertex="1" parent="THQHD4b7rlvCDU22syKn-82">
          <mxGeometry y="60" width="180" height="30" as="geometry" />
        </mxCell>
        <mxCell id="THQHD4b7rlvCDU22syKn-87" value="" style="shape=partialRectangle;html=1;whiteSpace=wrap;connectable=0;fillColor=none;top=0;left=0;bottom=0;right=0;overflow=hidden;" vertex="1" parent="THQHD4b7rlvCDU22syKn-86">
          <mxGeometry width="40" height="30" as="geometry" />
        </mxCell>
        <mxCell id="THQHD4b7rlvCDU22syKn-88" value="nama (varchar)" style="shape=partialRectangle;html=1;whiteSpace=wrap;connectable=0;fillColor=none;top=0;left=0;bottom=0;right=0;align=left;spacingLeft=6;overflow=hidden;" vertex="1" parent="THQHD4b7rlvCDU22syKn-86">
          <mxGeometry x="40" width="140" height="30" as="geometry" />
        </mxCell>
        <mxCell id="THQHD4b7rlvCDU22syKn-92" value="ProjectEmployees" style="shape=table;html=1;whiteSpace=wrap;startSize=30;container=1;collapsible=0;childLayout=tableLayout;fixedRows=1;rowLines=0;fontStyle=1;align=center;" vertex="1" parent="1">
          <mxGeometry x="520" y="280" width="180" height="120" as="geometry" />
        </mxCell>
        <mxCell id="THQHD4b7rlvCDU22syKn-93" value="" style="shape=partialRectangle;html=1;whiteSpace=wrap;collapsible=0;dropTarget=0;pointerEvents=0;fillColor=none;top=0;left=0;bottom=1;right=0;points=[[0,0.5],[1,0.5]];portConstraint=eastwest;" vertex="1" parent="THQHD4b7rlvCDU22syKn-92">
          <mxGeometry y="30" width="180" height="30" as="geometry" />
        </mxCell>
        <mxCell id="THQHD4b7rlvCDU22syKn-94" value="&lt;b&gt;PK&lt;/b&gt;" style="shape=partialRectangle;html=1;whiteSpace=wrap;connectable=0;fillColor=none;top=0;left=0;bottom=0;right=0;overflow=hidden;" vertex="1" parent="THQHD4b7rlvCDU22syKn-93">
          <mxGeometry width="40" height="30" as="geometry" />
        </mxCell>
        <mxCell id="THQHD4b7rlvCDU22syKn-95" value="&lt;b&gt;id (int)&lt;/b&gt;" style="shape=partialRectangle;html=1;whiteSpace=wrap;connectable=0;fillColor=none;top=0;left=0;bottom=0;right=0;align=left;spacingLeft=6;overflow=hidden;" vertex="1" parent="THQHD4b7rlvCDU22syKn-93">
          <mxGeometry x="40" width="140" height="30" as="geometry" />
        </mxCell>
        <mxCell id="THQHD4b7rlvCDU22syKn-96" value="" style="shape=partialRectangle;html=1;whiteSpace=wrap;collapsible=0;dropTarget=0;pointerEvents=0;fillColor=none;top=0;left=0;bottom=0;right=0;points=[[0,0.5],[1,0.5]];portConstraint=eastwest;" vertex="1" parent="THQHD4b7rlvCDU22syKn-92">
          <mxGeometry y="60" width="180" height="30" as="geometry" />
        </mxCell>
        <mxCell id="THQHD4b7rlvCDU22syKn-97" value="" style="shape=partialRectangle;html=1;whiteSpace=wrap;connectable=0;fillColor=none;top=0;left=0;bottom=0;right=0;overflow=hidden;" vertex="1" parent="THQHD4b7rlvCDU22syKn-96">
          <mxGeometry width="40" height="30" as="geometry" />
        </mxCell>
        <mxCell id="THQHD4b7rlvCDU22syKn-98" value="projectId" style="shape=partialRectangle;html=1;whiteSpace=wrap;connectable=0;fillColor=none;top=0;left=0;bottom=0;right=0;align=left;spacingLeft=6;overflow=hidden;" vertex="1" parent="THQHD4b7rlvCDU22syKn-96">
          <mxGeometry x="40" width="140" height="30" as="geometry" />
        </mxCell>
        <mxCell id="THQHD4b7rlvCDU22syKn-99" value="" style="shape=partialRectangle;html=1;whiteSpace=wrap;collapsible=0;dropTarget=0;pointerEvents=0;fillColor=none;top=0;left=0;bottom=0;right=0;points=[[0,0.5],[1,0.5]];portConstraint=eastwest;" vertex="1" parent="THQHD4b7rlvCDU22syKn-92">
          <mxGeometry y="90" width="180" height="30" as="geometry" />
        </mxCell>
        <mxCell id="THQHD4b7rlvCDU22syKn-100" value="&lt;b&gt;FK&lt;/b&gt;" style="shape=partialRectangle;html=1;whiteSpace=wrap;connectable=0;fillColor=none;top=0;left=0;bottom=0;right=0;overflow=hidden;" vertex="1" parent="THQHD4b7rlvCDU22syKn-99">
          <mxGeometry width="40" height="30" as="geometry" />
        </mxCell>
        <mxCell id="THQHD4b7rlvCDU22syKn-101" value="employeeId" style="shape=partialRectangle;html=1;whiteSpace=wrap;connectable=0;fillColor=none;top=0;left=0;bottom=0;right=0;align=left;spacingLeft=6;overflow=hidden;" vertex="1" parent="THQHD4b7rlvCDU22syKn-99">
          <mxGeometry x="40" width="140" height="30" as="geometry" />
        </mxCell>
        <mxCell id="THQHD4b7rlvCDU22syKn-102" value="&lt;b&gt;FK&lt;/b&gt;" style="shape=partialRectangle;html=1;whiteSpace=wrap;connectable=0;fillColor=none;top=0;left=0;bottom=0;right=0;overflow=hidden;" vertex="1" parent="1">
          <mxGeometry x="520" y="340" width="40" height="30" as="geometry" />
        </mxCell>
        <mxCell id="THQHD4b7rlvCDU22syKn-103" value="" style="edgeStyle=entityRelationEdgeStyle;fontSize=12;html=1;endArrow=ERoneToMany;exitX=1;exitY=0.5;exitDx=0;exitDy=0;" edge="1" parent="1" source="THQHD4b7rlvCDU22syKn-83">
          <mxGeometry width="100" height="100" relative="1" as="geometry">
            <mxPoint x="460" y="360" as="sourcePoint" />
            <mxPoint x="520" y="360" as="targetPoint" />
          </mxGeometry>
        </mxCell>
        <mxCell id="THQHD4b7rlvCDU22syKn-104" value="" style="edgeStyle=elbowEdgeStyle;fontSize=12;html=1;endArrow=ERoneToMany;exitX=0;exitY=0.5;exitDx=0;exitDy=0;" edge="1" parent="1" source="THQHD4b7rlvCDU22syKn-45">
          <mxGeometry width="100" height="100" relative="1" as="geometry">
            <mxPoint x="620" y="350" as="sourcePoint" />
            <mxPoint x="700" y="385" as="targetPoint" />
          </mxGeometry>
        </mxCell>
        <mxCell id="THQHD4b7rlvCDU22syKn-105" value="Pejabat" style="shape=table;html=1;whiteSpace=wrap;startSize=30;container=1;collapsible=0;childLayout=tableLayout;fixedRows=1;rowLines=0;fontStyle=1;align=center;" vertex="1" parent="1">
          <mxGeometry x="210" y="570" width="230" height="190" as="geometry" />
        </mxCell>
        <mxCell id="THQHD4b7rlvCDU22syKn-106" value="" style="shape=partialRectangle;html=1;whiteSpace=wrap;collapsible=0;dropTarget=0;pointerEvents=0;fillColor=none;top=0;left=0;bottom=1;right=0;points=[[0,0.5],[1,0.5]];portConstraint=eastwest;" vertex="1" parent="THQHD4b7rlvCDU22syKn-105">
          <mxGeometry y="30" width="230" height="30" as="geometry" />
        </mxCell>
        <mxCell id="THQHD4b7rlvCDU22syKn-107" value="&lt;b&gt;PK&lt;/b&gt;" style="shape=partialRectangle;html=1;whiteSpace=wrap;connectable=0;fillColor=none;top=0;left=0;bottom=0;right=0;overflow=hidden;" vertex="1" parent="THQHD4b7rlvCDU22syKn-106">
          <mxGeometry width="51" height="30" as="geometry" />
        </mxCell>
        <mxCell id="THQHD4b7rlvCDU22syKn-108" value="&lt;b&gt;id (int)&lt;/b&gt;" style="shape=partialRectangle;html=1;whiteSpace=wrap;connectable=0;fillColor=none;top=0;left=0;bottom=0;right=0;align=left;spacingLeft=6;overflow=hidden;" vertex="1" parent="THQHD4b7rlvCDU22syKn-106">
          <mxGeometry x="51" width="179" height="30" as="geometry" />
        </mxCell>
        <mxCell id="THQHD4b7rlvCDU22syKn-109" value="" style="shape=partialRectangle;html=1;whiteSpace=wrap;collapsible=0;dropTarget=0;pointerEvents=0;fillColor=none;top=0;left=0;bottom=0;right=0;points=[[0,0.5],[1,0.5]];portConstraint=eastwest;" vertex="1" parent="THQHD4b7rlvCDU22syKn-105">
          <mxGeometry y="60" width="230" height="30" as="geometry" />
        </mxCell>
        <mxCell id="THQHD4b7rlvCDU22syKn-110" value="" style="shape=partialRectangle;html=1;whiteSpace=wrap;connectable=0;fillColor=none;top=0;left=0;bottom=0;right=0;overflow=hidden;" vertex="1" parent="THQHD4b7rlvCDU22syKn-109">
          <mxGeometry width="51" height="30" as="geometry" />
        </mxCell>
        <mxCell id="THQHD4b7rlvCDU22syKn-111" value="name (varchar)" style="shape=partialRectangle;html=1;whiteSpace=wrap;connectable=0;fillColor=none;top=0;left=0;bottom=0;right=0;align=left;spacingLeft=6;overflow=hidden;" vertex="1" parent="THQHD4b7rlvCDU22syKn-109">
          <mxGeometry x="51" width="179" height="30" as="geometry" />
        </mxCell>
        <mxCell id="THQHD4b7rlvCDU22syKn-112" value="" style="shape=partialRectangle;html=1;whiteSpace=wrap;collapsible=0;dropTarget=0;pointerEvents=0;fillColor=none;top=0;left=0;bottom=0;right=0;points=[[0,0.5],[1,0.5]];portConstraint=eastwest;" vertex="1" parent="THQHD4b7rlvCDU22syKn-105">
          <mxGeometry y="90" width="230" height="30" as="geometry" />
        </mxCell>
        <mxCell id="THQHD4b7rlvCDU22syKn-113" value="" style="shape=partialRectangle;html=1;whiteSpace=wrap;connectable=0;fillColor=none;top=0;left=0;bottom=0;right=0;overflow=hidden;" vertex="1" parent="THQHD4b7rlvCDU22syKn-112">
          <mxGeometry width="51" height="30" as="geometry" />
        </mxCell>
        <mxCell id="THQHD4b7rlvCDU22syKn-114" value="partai (varchar)" style="shape=partialRectangle;html=1;whiteSpace=wrap;connectable=0;fillColor=none;top=0;left=0;bottom=0;right=0;align=left;spacingLeft=6;overflow=hidden;" vertex="1" parent="THQHD4b7rlvCDU22syKn-112">
          <mxGeometry x="51" width="179" height="30" as="geometry" />
        </mxCell>
        <mxCell id="THQHD4b7rlvCDU22syKn-115" value="location (varchar)" style="shape=partialRectangle;html=1;whiteSpace=wrap;connectable=0;fillColor=none;top=0;left=0;bottom=0;right=0;align=left;spacingLeft=6;overflow=hidden;" vertex="1" parent="1">
          <mxGeometry x="260" y="690" width="170" height="30" as="geometry" />
        </mxCell>
        <mxCell id="THQHD4b7rlvCDU22syKn-116" value="grade current (varchar)" style="shape=partialRectangle;html=1;whiteSpace=wrap;connectable=0;fillColor=none;top=0;left=0;bottom=0;right=0;align=left;spacingLeft=6;overflow=hidden;" vertex="1" parent="1">
          <mxGeometry x="260" y="720" width="140" height="30" as="geometry" />
        </mxCell>
      </root>
    </mxGraphModel>
  </diagram>
</mxfile>
